<svg width="60" height="61" viewBox="0 0 60 61" fill="none" xmlns="http://www.w3.org/2000/svg">
<path d="M0 1.58649V60.5C1.8 60.5 2.8 60.2265 4.1 59.8436C5.6 59.4279 7.26 58.9684 10 58.9684C12.6582 58.9684 14.3471 59.4244 15.8302 59.8247L15.9 59.8436L15.951 59.8578C17.2274 60.2123 18.2631 60.5 20 60.5C21.76 60.5 22.8 60.2265 24.1 59.8436L24.1288 59.8356C25.621 59.422 27.2577 58.9684 30 58.9684C32.6643 58.9684 34.285 59.4068 35.7435 59.8013L36.0594 59.8866C37.2884 60.2184 38.3316 60.5 40 60.5C41.8 60.5 42.8 60.2265 44.1 59.8436C45.6 59.4279 47.26 58.9684 50 58.9684C52.6582 58.9684 54.3471 59.4244 55.8301 59.8247L55.9 59.8436L55.951 59.8578C57.2273 60.2123 58.2631 60.5 60 60.5V1.58649C58.2631 1.58649 57.2274 1.87418 55.951 2.22874L55.9 2.24289L55.8301 2.26175C54.3471 2.66213 52.6582 3.11809 50 3.11809C47.26 3.11809 45.6 2.65861 44.1 2.24289C42.8 1.85999 41.8 1.58649 40 1.58649C38.3316 1.58649 37.2884 1.86812 36.0593 2.19991C36.0066 2.21415 35.9535 2.22848 35.9 2.24289C35.848 2.25692 35.7958 2.27103 35.7435 2.2852C34.285 2.67972 32.6643 3.11809 30 3.11809C27.2577 3.11809 25.621 2.66447 24.1288 2.25087L24.1 2.24289C22.8 1.85999 21.76 1.58649 20 1.58649C18.2631 1.58649 17.2274 1.87418 15.951 2.22873L15.9 2.24289L15.8302 2.26174C14.3471 2.66213 12.6582 3.11809 10 3.11809C7.26 3.11809 5.6 2.65861 4.1 2.24289C2.8 1.85999 1.8 1.58649 0 1.58649Z" fill="#0E86FF"/>
<path fill-rule="evenodd" clip-rule="evenodd" d="M35.7749 16.55C36.3962 16.55 36.8999 17.0537 36.8999 17.675V19.7064C37.5712 19.8967 38.1895 20.2561 38.6917 20.7582C39.4653 21.5318 39.8999 22.581 39.8999 23.675C39.8999 24.7691 39.4653 25.8183 38.6917 26.5919C38.1895 27.094 37.5712 27.4534 36.8999 27.6437V35.6751C36.8999 37.9625 35.9912 40.1563 34.3737 41.7738C32.7562 43.3913 30.5624 44.3001 28.2749 44.3001C25.9874 44.3001 23.7936 43.3913 22.1761 41.7738C20.5586 40.1563 19.6499 37.9625 19.6499 35.6751V29.675C19.6499 29.22 19.924 28.8098 20.3444 28.6357C20.7648 28.4616 21.2486 28.5578 21.5704 28.8796L26.0704 33.3796C26.5097 33.8189 26.5097 34.5312 26.0704 34.9705C25.6311 35.4099 24.9187 35.4099 24.4794 34.9705L21.8999 32.391V35.6751C21.8999 37.3658 22.5716 38.9873 23.7671 40.1829C24.9626 41.3784 26.5841 42.0501 28.2749 42.0501C29.9657 42.0501 31.5872 41.3784 32.7827 40.1829C33.9783 38.9873 34.6499 37.3658 34.6499 35.6751V27.6437C33.9786 27.4534 33.3603 27.094 32.8581 26.5919C32.0845 25.8183 31.6499 24.7691 31.6499 23.675C31.6499 22.581 32.0845 21.5318 32.8581 20.7582C33.3603 20.2561 33.9786 19.8967 34.6499 19.7064V17.675C34.6499 17.0537 35.1536 16.55 35.7749 16.55ZM35.7749 21.8C35.2776 21.8 34.8007 21.9976 34.4491 22.3492C34.0974 22.7009 33.8999 23.1778 33.8999 23.675C33.8999 24.1723 34.0974 24.6492 34.4491 25.0009C34.8007 25.3525 35.2776 25.55 35.7749 25.55C36.2722 25.55 36.7491 25.3525 37.1007 25.0009C37.4524 24.6492 37.6499 24.1723 37.6499 23.675C37.6499 23.1778 37.4524 22.7009 37.1007 22.3492C36.7491 21.9976 36.2722 21.8 35.7749 21.8Z" fill="white"/>
</svg>
