<svg width="64" height="56" viewBox="0 0 64 56" fill="none" xmlns="http://www.w3.org/2000/svg">
<g id="Group 1">
<path id="Subtract" fill-rule="evenodd" clip-rule="evenodd" d="M46.6968 7.64626C43.0497 5.83085 38.9603 4.81348 34.6408 4.81348C19.2841 4.81348 6.83505 17.6727 6.83505 33.5354C6.83505 41.8641 10.267 49.3649 15.7499 54.611C6.43076 49.9722 0 40.1228 0 28.7219C0 12.8592 12.4491 0 27.8058 0C35.0994 0 41.7372 2.90072 46.6968 7.64626Z" fill="#4DA6FF"/>
<path id="Vector 1" d="M63.9999 30.0057L49.7087 46.3724C50.0194 43.4842 51.4174 41.3982 52.9708 39.4727C54.2135 37.9323 57.3203 34.552 58.7184 33.0544C55.6116 32.7335 50.6407 35.7822 46.9126 38.8309C43.1844 41.8796 39.4563 42.5214 34.3301 41.5587C29.2039 40.5959 28.8932 42.04 26.0971 44.126C23.301 46.2119 18.3301 47.3351 12.7379 49.1002C8.26409 50.5122 3.10682 54.2883 1.0874 55.9999C1.8641 54.7697 4.16313 51.6675 7.14565 49.1002C10.1282 46.5329 17.3981 40.3285 20.6602 37.5472C19.0447 37.6756 17.7087 37.3868 17.2427 37.2263C25.0097 32.573 33.8641 30.4871 38.6796 28.5616C43.4951 26.6361 39.1456 21.0201 37.2815 18.2923C35.7903 16.1101 32.7249 15.9924 31.3786 16.2064C32.2485 14.0241 34.8479 12.8368 36.0388 12.5158C34.4854 12.4623 29.7942 12.3875 23.4563 12.5158C17.1184 12.6442 13.877 9.89503 13.0486 8.50439C24.699 11.3926 31.6893 10.109 35.2621 9.94851C38.8349 9.78806 41.3204 10.5903 43.8058 11.5531C45.7941 12.3233 49.1909 12.9437 50.6407 13.1577C49.5223 17.2654 46.1359 17.8644 44.5825 17.6505C47.0161 20.6457 52.132 26.9249 53.1262 28.0802C54.1203 29.2355 57.0614 29.4174 58.4077 29.3639C60.5203 29.2355 63.0161 29.7383 63.9999 30.0057Z" fill="#211E1E"/>
</g>
</svg>
