<svg width="92" height="80" viewBox="0 0 92 80" fill="none" xmlns="http://www.w3.org/2000/svg">
<g id="Group 1">
<path id="Subtract" fill-rule="evenodd" clip-rule="evenodd" d="M67.1287 10.9256C61.8854 8.33127 56.0059 6.87737 49.7956 6.87737C27.7205 6.87737 9.82504 25.2477 9.82504 47.9087C9.82504 59.8056 14.7574 70.52 22.6375 78.0144C9.24291 71.387 0 57.3172 0 41.0313C0 18.3703 17.8954 0 39.9706 0C50.4563 0 59.999 4.14484 67.1287 10.9256Z" fill="white"/>
<path id="Vector 1" d="M91.9998 42.8656L71.4563 66.2466C71.9029 62.1205 73.9126 59.1406 76.1455 56.3899C77.9319 54.1893 82.3979 49.3603 84.4076 47.2209C79.9416 46.7624 72.7961 51.1177 67.4369 55.473C62.0777 59.8282 56.7185 60.7451 49.3496 59.3698C41.9807 57.9944 41.5341 60.0575 37.5147 63.0374C33.4954 66.0173 26.3498 67.6219 18.311 70.1434C11.88 72.1606 4.46643 77.555 1.56354 80.0001C2.68003 78.2427 5.98487 73.811 10.2722 70.1434C14.5596 66.4758 25.01 57.6124 29.6993 53.6392C27.377 53.8225 25.4566 53.4099 24.7867 53.1807C35.9516 46.5332 48.6797 43.5533 55.602 40.8026C62.5243 38.0519 56.2719 30.029 53.5923 26.1321C51.4486 23.0147 47.0422 22.8466 45.1069 23.1522C46.3574 20.0348 50.0939 18.3385 51.8059 17.88C49.5729 17.8036 42.8293 17.6967 33.7187 17.88C24.608 18.0634 19.9485 14.136 18.7576 12.1494C35.5051 16.2755 45.5535 14.4417 50.6894 14.2124C55.8253 13.9832 59.3981 15.1293 62.9709 16.5047C65.8291 17.605 70.7119 18.4913 72.7961 18.7969C71.1883 24.6651 66.3204 25.5209 64.0874 25.2152C67.5857 29.4941 74.9397 38.4645 76.3688 40.1149C77.798 41.7653 82.0258 42.0251 83.961 41.9487C86.9979 41.7653 90.5856 42.4835 91.9998 42.8656Z" fill="white"/>
</g>
</svg>
