<?xml version="1.0" standalone="no"?>
<!DOCTYPE svg PUBLIC "-//W3C//DTD SVG 20010904//EN"
 "http://www.w3.org/TR/2001/REC-SVG-20010904/DTD/svg10.dtd">
<svg version="1.0" xmlns="http://www.w3.org/2000/svg"
 width="1024.000000pt" height="1024.000000pt" viewBox="0 0 1024.000000 1024.000000"
 preserveAspectRatio="xMidYMid meet">
<metadata>
Created by potrace 1.14, written by Peter Selinger 2001-2017
</metadata>
<g transform="translate(0.000000,1024.000000) scale(0.100000,-0.100000)"
fill="#000000" stroke="none">
<path d="M4198 9595 c-2 -1 -39 -5 -83 -9 -77 -6 -141 -12 -215 -21 -19 -3
-55 -7 -80 -10 -25 -3 -67 -10 -95 -15 -53 -11 -64 -13 -135 -26 -52 -9 -59
-11 -62 -14 -2 -1 -14 -3 -28 -5 -118 -15 -595 -169 -760 -247 -58 -27 -114
-52 -120 -53 -3 0 -52 -24 -108 -53 -93 -47 -138 -71 -250 -134 -85 -48 -351
-223 -393 -259 -8 -8 -37 -30 -65 -49 -27 -19 -53 -39 -59 -46 -5 -6 -28 -24
-50 -40 -21 -16 -51 -40 -65 -54 -15 -14 -56 -50 -91 -80 -78 -67 -294 -284
-369 -369 -30 -35 -60 -69 -65 -75 -6 -6 -28 -33 -50 -61 -22 -27 -42 -52 -45
-55 -31 -28 -253 -345 -316 -450 -21 -36 -41 -67 -44 -70 -3 -3 -11 -16 -18
-30 -6 -14 -29 -56 -51 -95 -134 -240 -258 -525 -352 -810 -25 -74 -114 -402
-124 -455 -1 -8 -5 -31 -9 -50 -3 -19 -8 -46 -11 -60 -12 -60 -37 -208 -39
-235 -2 -16 -7 -55 -11 -85 -4 -30 -9 -68 -10 -85 -2 -16 -7 -75 -11 -130 -11
-121 -11 -597 -1 -715 16 -182 16 -183 33 -300 2 -14 6 -43 9 -65 5 -43 20
-134 30 -175 8 -37 18 -93 18 -107 0 -7 3 -13 6 -13 3 0 7 -10 8 -22 2 -27 11
-73 13 -73 1 0 3 -7 5 -15 18 -84 65 -251 81 -288 7 -19 12 -38 9 -42 -3 -5
-1 -11 4 -14 5 -3 12 -18 15 -33 14 -56 103 -291 118 -307 4 -6 8 -16 8 -23 0
-21 144 -322 206 -430 34 -60 64 -112 103 -180 29 -50 180 -279 204 -308 4 -5
28 -37 53 -70 72 -94 88 -115 107 -138 70 -83 107 -126 144 -166 39 -43 53
-71 36 -71 -5 0 -33 -23 -63 -50 -30 -28 -84 -76 -118 -108 -82 -73 -220 -211
-297 -294 -33 -36 -81 -88 -108 -116 -26 -29 -47 -54 -47 -56 0 -2 -17 -23
-38 -45 -20 -22 -55 -64 -77 -92 -22 -28 -45 -56 -50 -62 -6 -7 -24 -30 -40
-52 -46 -61 -49 -65 -67 -86 -10 -10 -18 -23 -18 -27 0 -5 -9 -17 -20 -27 -11
-10 -20 -24 -20 -31 0 -7 -3 -14 -7 -16 -10 -4 -76 -98 -69 -98 2 0 11 6 18
13 7 7 31 26 53 42 22 17 45 35 50 41 6 6 48 40 95 75 47 34 87 67 88 71 2 4
8 8 13 8 5 0 35 20 66 44 79 59 372 256 382 256 4 0 16 9 26 20 10 11 22 20
27 20 5 0 29 14 53 30 24 17 48 30 54 30 6 0 11 5 11 10 0 6 5 10 11 10 6 0
37 15 68 34 139 84 339 187 343 176 2 -5 64 -58 138 -119 74 -61 143 -118 153
-126 9 -8 19 -15 22 -15 3 0 24 -15 48 -32 71 -54 88 -66 200 -138 59 -39 112
-70 117 -70 6 0 10 -5 10 -11 0 -5 4 -8 9 -5 5 4 11 2 13 -2 3 -7 35 -26 178
-104 81 -44 86 -40 25 20 -148 145 -280 296 -412 471 -40 53 -77 101 -83 108
-5 7 -10 16 -10 22 0 5 -4 11 -8 13 -5 2 -27 31 -50 65 -31 46 -38 63 -29 71
7 6 71 29 142 53 72 23 137 44 145 47 8 3 18 6 23 7 4 2 8 3 10 5 1 1 9 3 17
5 9 1 60 16 115 33 257 79 311 96 320 98 21 4 131 36 145 41 8 4 17 7 20 8 3
0 32 9 65 19 33 10 65 19 70 20 6 1 96 30 201 64 106 34 197 62 203 62 6 0 11
5 11 12 0 6 3 9 6 5 4 -3 36 5 73 19 36 14 73 27 82 29 9 2 37 13 62 24 25 12
48 21 50 21 3 0 22 8 43 17 22 9 41 17 44 18 58 10 437 219 448 247 2 4 10 8
17 8 7 0 15 3 17 8 2 4 34 32 73 62 79 62 100 79 165 135 89 76 100 85 109 85
5 0 14 7 21 15 27 33 194 114 265 130 11 2 31 6 45 10 14 3 57 7 96 10 39 2
75 5 80 6 5 1 11 1 14 0 3 -1 41 -4 85 -7 129 -7 201 -16 380 -49 93 -17 117
-21 195 -30 25 -3 61 -8 80 -10 160 -24 527 -23 652 0 16 3 40 7 55 9 37 6 80
15 123 26 19 5 46 11 60 14 41 7 202 63 266 93 32 14 61 27 64 28 7 1 101 50
147 76 62 35 148 91 154 101 3 5 10 10 15 11 5 0 14 4 19 9 6 4 54 41 108 83
53 41 140 109 193 150 52 41 141 108 197 147 56 40 104 76 105 80 2 5 8 8 13
8 11 0 72 42 77 53 2 4 8 7 13 7 5 0 31 16 58 35 26 19 52 35 56 35 5 0 23 11
41 25 18 14 35 25 38 25 3 0 35 18 71 40 174 106 604 304 623 286 3 -3 10 -2
16 4 16 13 150 46 231 56 61 8 174 11 184 5 5 -4 -16 -33 -46 -66 -30 -33 -94
-102 -142 -154 -47 -51 -97 -106 -111 -121 -14 -15 -61 -67 -105 -116 -118
-130 -118 -129 -145 -160 -14 -16 -75 -85 -135 -154 -60 -69 -112 -127 -115
-130 -3 -3 -37 -43 -75 -90 -39 -47 -73 -87 -77 -88 -5 -2 -8 -10 -8 -17 0 -7
-3 -15 -7 -17 -10 -4 -88 -106 -128 -168 -17 -25 -32 -47 -35 -50 -7 -7 -29
-43 -37 -60 -3 -8 -15 -26 -25 -39 -10 -13 -15 -27 -12 -32 3 -5 1 -9 -4 -9
-12 0 -95 -178 -132 -282 -37 -107 -68 -231 -74 -296 -2 -28 -7 -56 -11 -61
-16 -26 14 -7 42 27 17 20 39 47 50 58 10 12 41 48 68 79 63 74 126 144 145
165 8 8 26 29 38 45 13 17 54 63 90 104 37 41 73 82 79 91 7 10 27 33 45 52
18 19 52 57 75 84 24 28 53 62 65 76 13 13 40 44 61 69 21 24 62 71 91 104 53
60 97 111 191 220 28 32 57 65 65 74 9 9 47 52 85 96 39 44 72 82 75 85 3 3
48 55 100 115 111 130 127 148 173 198 19 20 49 55 67 77 17 21 42 50 53 63
12 13 45 50 72 81 28 31 61 70 75 85 14 15 79 90 145 166 66 76 129 149 140
161 11 12 41 46 67 76 25 29 62 71 82 93 37 41 41 51 29 58 -8 5 -194 45 -245
53 -16 2 -43 6 -60 9 -33 6 -88 13 -143 20 -97 12 -220 17 -460 20 -148 1
-279 5 -291 8 -12 3 -45 8 -75 12 -30 4 -57 9 -60 11 -3 2 -25 6 -48 9 -23 3
-50 9 -59 14 -9 5 -19 9 -22 9 -11 0 -95 26 -100 32 -3 3 -25 14 -50 25 -44
20 -112 82 -180 165 -19 23 -42 51 -50 60 -8 10 -22 27 -30 37 -55 68 -107
130 -118 141 -7 8 -25 30 -40 50 -15 21 -29 39 -32 42 -3 3 -18 21 -33 40 -16
19 -44 53 -62 75 -19 22 -62 74 -95 115 -34 41 -76 93 -95 115 -41 50 -178
219 -213 264 -15 19 -31 39 -37 45 -5 6 -28 34 -50 61 -22 28 -48 59 -58 70
-10 11 -35 41 -55 68 -20 26 -40 47 -44 47 -4 0 -8 4 -8 10 0 9 -20 35 -55 74
-6 6 -28 33 -50 61 -22 27 -44 55 -50 61 -5 6 -23 28 -40 50 -16 21 -42 51
-57 66 l-27 28 82 1 c93 1 112 3 217 25 83 17 253 95 313 143 69 54 132 115
157 151 13 19 35 46 47 60 13 14 23 30 23 37 0 6 4 13 8 15 18 7 100 200 116
271 6 23 3 27 -16 28 -13 0 -34 2 -48 5 -49 8 -75 13 -100 18 -14 3 -41 7 -60
10 -19 3 -60 10 -90 16 -30 6 -66 14 -80 16 -51 11 -159 35 -240 54 -245 59
-295 74 -525 160 -124 46 -317 112 -341 116 -6 1 -36 9 -65 17 -30 9 -65 18
-79 21 -45 10 -125 26 -150 31 -14 3 -36 7 -50 10 -14 3 -50 8 -80 11 -30 4
-68 8 -85 10 -66 9 -177 13 -305 13 -186 -1 -200 -1 -200 -11 0 -5 -5 -6 -12
-2 -13 9 -45 9 -123 0 -27 -2 -86 -8 -130 -11 -44 -4 -102 -8 -130 -11 -27 -2
-93 -7 -145 -10 -52 -3 -142 -8 -200 -11 -136 -8 -767 -8 -890 0 -265 17 -324
22 -515 42 -46 5 -136 17 -240 31 -16 2 -52 6 -80 10 -27 3 -51 7 -53 8 -5 6
269 186 284 186 3 0 28 15 57 33 29 18 102 57 162 87 61 30 113 60 117 65 4 6
8 7 8 2 0 -4 15 0 33 10 17 9 35 16 39 15 3 -1 12 5 18 13 7 8 17 15 22 15 7
0 172 63 303 115 11 5 22 9 25 10 3 0 32 9 65 20 33 10 65 19 70 21 6 1 30 9
55 17 44 15 270 73 320 82 14 3 36 7 50 10 14 3 52 10 85 16 33 5 71 12 85 15
42 8 113 17 147 18 18 0 33 3 33 6 0 3 12 6 28 6 15 1 72 5 127 10 136 11 556
11 685 0 58 -5 120 -9 138 -10 17 -1 32 -5 32 -9 0 -5 4 -6 8 -3 5 3 37 1 73
-4 35 -5 82 -12 104 -15 22 -3 60 -10 85 -15 52 -11 92 -19 135 -26 17 -3 44
-9 60 -14 17 -5 41 -12 55 -14 14 -3 43 -10 65 -16 22 -6 51 -13 65 -16 14 -2
34 -8 45 -13 35 -15 230 -75 238 -73 4 1 7 -3 7 -9 0 -5 4 -8 8 -5 5 3 19 -1
33 -7 13 -7 44 -19 69 -27 25 -7 50 -17 55 -20 6 -4 26 -13 45 -20 19 -7 63
-26 98 -42 34 -15 67 -28 71 -28 5 0 11 -3 13 -7 2 -5 21 -16 43 -26 39 -17
39 -17 -25 44 -36 34 -92 84 -124 111 -33 28 -65 55 -71 61 -7 7 -23 19 -35
27 -12 8 -28 20 -34 26 -7 6 -59 46 -116 88 -58 41 -116 85 -130 96 -14 11
-29 20 -34 20 -4 0 -25 14 -46 30 -21 17 -41 30 -44 30 -3 0 -30 16 -59 34
-47 30 -95 58 -172 100 -11 6 -23 16 -27 21 -4 6 -8 6 -8 2 0 -5 -15 0 -32 11
-36 22 -170 89 -233 117 -22 9 -53 23 -70 31 -74 34 -175 73 -175 67 0 -3 -6
0 -14 6 -12 10 -179 69 -211 75 -5 1 -14 4 -20 8 -8 5 -86 28 -145 43 -8 2
-15 4 -15 5 0 1 -9 3 -20 5 -11 2 -35 8 -53 13 -18 6 -35 11 -37 11 -3 1 -6 1
-7 2 -7 2 -46 10 -68 14 -23 4 -35 6 -100 20 -62 13 -112 22 -165 30 -22 4
-53 9 -70 12 -16 3 -46 6 -65 8 -19 2 -60 7 -90 11 -30 4 -75 8 -100 11 -55 4
-607 12 -612 8z m-1456 -1834 c29 -12 61 -24 68 -26 3 0 34 -10 70 -22 36 -12
79 -25 95 -29 17 -4 32 -8 35 -9 52 -14 123 -28 230 -46 87 -14 124 -17 240
-24 47 -2 87 -5 90 -6 20 -5 300 -2 300 3 0 4 10 4 23 -1 13 -5 30 -6 38 -2
11 6 1728 8 1777 2 22 -2 12 -21 -15 -27 -57 -14 -282 -128 -327 -165 -6 -5
-38 -31 -72 -57 -111 -87 -194 -184 -248 -291 l-24 -46 157 0 c271 0 471 -58
636 -185 46 -36 116 -107 140 -142 6 -8 27 -39 48 -69 20 -30 53 -79 73 -109
20 -30 42 -58 48 -62 6 -5 7 -8 1 -8 -6 0 -5 -3 1 -8 11 -7 144 -208 144 -217
0 -2 13 -23 29 -47 41 -62 150 -282 176 -358 1 -3 5 -12 8 -20 6 -13 16 -52
43 -155 3 -11 7 -66 8 -122 5 -153 -34 -255 -133 -352 -57 -54 -161 -115 -251
-146 -3 -1 -14 -5 -25 -10 -84 -32 -159 -59 -280 -100 -77 -26 -144 -50 -150
-54 -5 -3 -14 -6 -20 -7 -9 -2 -490 -158 -525 -171 -8 -4 -19 -7 -25 -9 -15
-4 -450 -155 -600 -208 -71 -26 -139 -51 -150 -57 -12 -5 -27 -11 -35 -13 -8
-1 -25 -7 -36 -14 -12 -6 -24 -8 -28 -5 -3 3 -6 1 -6 -5 0 -7 -3 -11 -7 -10
-5 0 -15 -1 -23 -5 -8 -3 -42 -15 -75 -27 -33 -12 -65 -26 -71 -31 -6 -5 -19
-10 -30 -12 -10 -2 -32 -10 -49 -17 -16 -7 -34 -14 -40 -16 -5 -1 -32 -13 -60
-25 -27 -13 -52 -24 -55 -24 -7 -2 -42 -17 -137 -59 -45 -20 -86 -36 -92 -36
-6 0 -11 -4 -11 -10 0 -5 -3 -9 -7 -8 -9 2 -82 -30 -174 -77 -37 -19 -69 -31
-73 -28 -3 4 -6 1 -6 -6 0 -7 -4 -9 -10 -6 -5 3 -10 1 -10 -5 0 -6 -4 -9 -9
-6 -5 4 -11 3 -13 -1 -1 -5 -46 -29 -98 -55 -100 -50 -192 -100 -352 -190
-102 -57 -113 -78 -46 -82 19 -1 39 -5 44 -8 5 -4 37 -9 69 -13 33 -4 71 -9
85 -11 14 -3 79 -5 144 -5 66 0 124 -3 128 -5 5 -3 -8 -16 -27 -30 -20 -13
-47 -34 -59 -47 -13 -12 -43 -38 -67 -57 -23 -19 -47 -39 -53 -45 -6 -5 -40
-35 -76 -65 -36 -30 -67 -57 -70 -60 -3 -3 -32 -28 -65 -55 -33 -28 -62 -52
-65 -55 -3 -3 -50 -43 -105 -90 -55 -47 -111 -95 -125 -107 -14 -11 -77 -65
-140 -119 -63 -54 -120 -103 -126 -109 -6 -5 -31 -26 -55 -47 -24 -20 -54 -44
-65 -55 -12 -10 -43 -36 -68 -57 -26 -21 -60 -51 -75 -65 -16 -14 -45 -39 -66
-56 -20 -16 -52 -43 -70 -60 -18 -16 -65 -56 -104 -89 -39 -32 -71 -63 -71
-67 0 -5 -4 -9 -9 -9 -9 0 -48 -31 -104 -82 -17 -16 -33 -28 -36 -28 -3 1 -18
26 -33 58 -41 86 -105 229 -113 252 -2 7 -13 34 -40 105 -29 75 -37 97 -41
110 -1 6 -13 42 -27 80 -14 39 -39 120 -56 180 -17 61 -36 126 -41 145 -6 19
-12 47 -15 63 -11 62 -16 83 -21 97 -4 8 -8 24 -10 35 -1 11 -5 31 -8 45 -3
14 -9 45 -12 70 -3 25 -8 48 -10 51 -4 7 -40 263 -49 354 -24 223 -24 708 0
910 2 17 6 55 9 87 3 31 10 87 16 125 6 37 13 84 16 103 5 42 11 77 18 110 3
14 8 39 11 55 8 40 19 92 45 195 11 47 22 94 24 105 2 11 9 32 15 48 6 15 9
27 7 27 -2 0 25 84 60 188 35 103 65 192 66 197 2 6 5 12 8 15 3 3 11 23 19
45 7 22 26 68 42 103 16 35 29 65 29 68 0 8 143 299 149 304 3 3 14 21 23 40
10 19 31 58 48 85 16 28 35 61 42 75 7 14 18 31 25 38 7 7 13 17 13 21 0 4 9
18 20 31 11 13 20 29 20 37 0 7 5 13 10 13 6 0 10 6 10 14 0 8 3 16 8 18 4 2
24 28 45 58 63 93 72 105 80 108 4 2 7 8 7 13 0 9 21 37 53 71 9 10 17 20 17
23 0 6 35 49 67 82 12 13 20 23 16 23 -5 0 104 125 174 200 18 19 33 38 33 42
0 4 7 8 15 8 8 0 15 4 15 9 0 10 93 104 201 202 45 41 86 79 93 86 14 15 28
16 58 4z"/>
</g>
</svg>
