<svg width="40" height="40" viewBox="0 0 40 40" fill="none" xmlns="http://www.w3.org/2000/svg">
<path fill-rule="evenodd" clip-rule="evenodd" d="M5.55165 6.10148C5.76458 5.6813 6.19562 5.4165 6.66666 5.4165H13.7783C14.1765 5.4165 14.5509 5.60621 14.7863 5.92731L22.1979 16.0342L32.4494 5.78262C32.9376 5.29447 33.7291 5.29447 34.2172 5.78262C34.7054 6.27078 34.7054 7.06223 34.2172 7.55039L23.6936 18.074L34.3413 32.594C34.6199 32.9738 34.6613 33.478 34.4483 33.8982C34.2354 34.3184 33.8044 34.5832 33.3333 34.5832H26.2217C25.8235 34.5832 25.4491 34.3935 25.2136 34.0724L17.8021 23.9655L7.55055 34.2171C7.06239 34.7052 6.27093 34.7052 5.78278 34.2171C5.29462 33.7289 5.29462 32.9374 5.78278 32.4493L16.3064 21.9257L5.65865 7.40569C5.38009 7.02584 5.33873 6.52165 5.55165 6.10148ZM20.9658 18.5817C21.0091 18.6561 21.0608 18.7269 21.1207 18.7929L30.8666 32.0832H26.8551L9.13338 7.9165H13.1449L20.9658 18.5817Z" fill="white"/>
</svg>
