<svg width="40" height="40" viewBox="0 0 40 40" fill="none" xmlns="http://www.w3.org/2000/svg">
<path fill-rule="evenodd" clip-rule="evenodd" d="M28.9358 9.56686C26.3879 7.39368 23.1346 6.22501 19.7862 6.28019C16.4379 6.33536 13.2248 7.61058 10.7499 9.86653C8.27505 12.1225 6.70853 15.2041 6.34434 18.533C5.98015 21.8619 6.84334 25.2093 8.77191 27.947C9.02298 28.3034 9.07022 28.7648 8.89659 29.1647L7.07462 33.3608L13.1974 32.2696C13.4587 32.223 13.728 32.2608 13.9664 32.3775C16.974 33.8501 20.4156 34.1745 23.6454 33.2898C26.8752 32.4051 29.6711 30.3721 31.5085 27.5723C33.3458 24.7726 34.0982 21.3986 33.6245 18.0834C33.1509 14.7683 31.4837 11.74 28.9358 9.56686ZM19.7451 3.78053C23.7022 3.71532 27.5471 5.09647 30.5582 7.66477C33.5693 10.2331 35.5396 13.812 36.0994 17.7298C36.6592 21.6477 35.77 25.6352 33.5986 28.944C31.4272 32.2527 28.1229 34.6554 24.3059 35.701C20.6227 36.7099 16.7064 36.3883 13.2427 34.8009L5.21933 36.2308C4.76593 36.3116 4.30482 36.1366 4.01927 35.7752C3.73373 35.4139 3.67001 34.9248 3.85344 34.5023L6.33112 28.7962C4.33159 25.6762 3.45461 21.959 3.85917 18.2611C4.28957 14.3269 6.14092 10.685 9.06578 8.01893C11.9906 5.35281 15.7879 3.84573 19.7451 3.78053ZM14.3602 13.5271C14.7509 13.1364 15.2808 12.9169 15.8333 12.9169C16.3859 12.9169 16.9158 13.1364 17.3065 13.5271C17.6972 13.9178 17.9167 14.4477 17.9167 15.0002V16.6669C17.9167 17.2194 17.6972 17.7493 17.3065 18.1401C17.0847 18.3619 16.818 18.5285 16.5278 18.6311C16.8569 19.7714 17.4704 20.8213 18.3247 21.6756C19.1789 22.5298 20.2289 23.1433 21.3692 23.4725C21.4718 23.1823 21.6384 22.9156 21.8602 22.6938C22.2509 22.3031 22.7808 22.0836 23.3333 22.0836H25C25.5525 22.0836 26.0824 22.3031 26.4732 22.6938C26.8639 23.0845 27.0833 23.6144 27.0833 24.1669C27.0833 24.7194 26.8639 25.2493 26.4732 25.64C26.0824 26.0308 25.5525 26.2502 25 26.2502H23.3333C20.7917 26.2502 18.3541 25.2406 16.5569 23.4433C14.7597 21.6461 13.75 19.2086 13.75 16.6669V15.0002C13.75 14.4477 13.9695 13.9178 14.3602 13.5271Z" fill="white"/>
</svg>
