<svg width="40" height="40" viewBox="0 0 40 40" fill="none" xmlns="http://www.w3.org/2000/svg">
<path fill-rule="evenodd" clip-rule="evenodd" d="M35.8265 5.72878C36.1771 6.03774 36.326 6.5164 36.2127 6.9697L29.546 33.6364C29.4368 34.0733 29.101 34.4176 28.667 34.5378C28.233 34.658 27.7679 34.5355 27.4495 34.2171L20.1353 26.9029L16 32.4165C15.721 32.7885 15.2587 32.9749 14.7998 32.9004C14.3409 32.8259 13.9612 32.5029 13.8142 32.0618L10.6446 22.553L4.44099 19.4512C3.99877 19.2301 3.72843 18.7691 3.75135 18.2752C3.77427 17.7814 4.08615 17.3474 4.54695 17.1682L34.5469 5.50152C34.9824 5.33217 35.476 5.41983 35.8265 5.72878ZM20.8991 24.1312C20.8899 24.1217 20.8805 24.1122 20.8708 24.1029L20.1011 23.3332L25.8839 17.5504C26.372 17.0623 26.372 16.2708 25.8839 15.7826C25.3957 15.2945 24.6043 15.2945 24.1161 15.7826L17.4495 22.4493C16.9613 22.9375 16.9613 23.7289 17.4495 24.2171L18.3495 25.1172L15.4314 29.008L12.8525 21.2712C12.7477 20.9567 12.5222 20.6968 12.2257 20.5485L8.08109 18.4762L33.2014 8.70719L27.6561 30.8882L20.8991 24.1312Z" fill="white"/>
</svg>
