<svg width="336" height="350" viewBox="0 0 336 350" fill="none" xmlns="http://www.w3.org/2000/svg">
<path d="M136.468 13.504C154.049 -3.50394 181.951 -3.50395 199.532 13.504V13.504C209.586 23.2299 223.565 27.772 237.415 25.813V25.813C261.636 22.3872 284.208 38.7874 288.435 62.881V62.881C290.852 76.6588 299.491 88.5503 311.848 95.1064V95.1064C333.456 106.571 342.078 133.107 331.336 155.084V155.084C325.193 167.651 325.193 182.349 331.336 194.916V194.916C342.078 216.893 333.456 243.429 311.848 254.894V254.894C299.491 261.45 290.852 273.341 288.435 287.119V287.119C284.208 311.213 261.636 327.613 237.415 324.187V324.187C223.565 322.228 209.586 326.77 199.532 336.496V336.496C181.951 353.504 154.049 353.504 136.468 336.496V336.496C126.414 326.77 112.435 322.228 98.5849 324.187V324.187C74.3645 327.613 51.7916 311.213 47.5652 287.119V287.119C45.1484 273.341 36.5087 261.45 24.1521 254.894V254.894C2.54371 243.429 -6.07838 216.893 4.66429 194.916V194.916C10.8074 182.349 10.8074 167.651 4.66429 155.084V155.084C-6.07838 133.107 2.54372 106.571 24.1521 95.1064V95.1064C36.5087 88.5503 45.1484 76.6588 47.5652 62.881V62.881C51.7916 38.7874 74.3645 22.3872 98.5849 25.813V25.813C112.435 27.772 126.414 23.2299 136.468 13.504V13.504Z" fill="black"/>
</svg>
